# xmcd CD database file
#
# Track frame offsets:
#	150
#	27361
#	47456
#	70384
#	97752
#	119388
#	136634
#	158566
#	177590
#	210620
#	232964
#	257861
#	275531
#	293843
#	317616
#
# Disc length: 4453 seconds
#
# Revision: 0
# Processed by: cddbd v1.5.1PL0 Copyright (c) Steve Scherf et al.
# Submitted via: CDex 1.50
#
DISCID=cd11630f
DTITLE=Art Pepper - Mosaic Select 15 Disc 2
DYEAR=1900
DGENRE=Jazz
TTITLE0=Blues In
TTITLE1=Bewitched, Bothered And Bewildered
TTITLE2=Stompin' At The Savoy
TTITLE3=What Is This Thing Called Love
TTITLE4=Blues Out
TTITLE5=Diane's Dilemma
TTITLE6=When You're Smiling
TTITLE7=Cool Bunny
TTITLE8=Summertime
TTITLE9=Diane's Dilemma (Alt Take)
TTITLE10=What Is This Thing Called Love (Alt Take)
TTITLE11=A Foggy Day
TTITLE12=Diane-A-Flow
TTITLE13=Zenobia
TTITLE14=Angel Eyes
EXTD=
EXTT0=
EXTT1=
EXTT2=
EXTT3=
EXTT4=
EXTT5=
EXTT6=
EXTT7=
EXTT8=
EXTT9=
EXTT10=
EXTT11=
EXTT12=
EXTT13=
EXTT14=
PLAYORDER=
